<mxfile host="app.diagrams.net" modified="2020-06-15T06:06:52.293Z" agent="5.0 (Macintosh; Intel Mac OS X 10_15_4) AppleWebKit/537.36 (KHTML, like Gecko) Chrome/83.0.4103.61 Safari/537.36" etag="TeXH3dUdFb0aSpbzVLv6" version="13.2.4" type="github">
  <diagram id="bsD2x_KO6xM0R5m1DpQU" name="Page-1">
    <mxGraphModel dx="2125" dy="834" grid="1" gridSize="10" guides="1" tooltips="1" connect="1" arrows="1" fold="1" page="1" pageScale="1" pageWidth="827" pageHeight="1169" math="0" shadow="0">
      <root>
        <mxCell id="0" />
        <mxCell id="1" parent="0" />
        <mxCell id="wW9nk24ufCQ6Eqpu4SKE-6" value="" style="rounded=0;whiteSpace=wrap;html=1;" parent="1" vertex="1">
          <mxGeometry x="-270" y="310" width="370" height="150" as="geometry" />
        </mxCell>
        <mxCell id="wW9nk24ufCQ6Eqpu4SKE-4" value="proxy" style="rounded=1;whiteSpace=wrap;html=1;fillColor=#60a917;strokeColor=#2D7600;fontColor=#ffffff;" parent="1" vertex="1">
          <mxGeometry x="-260" y="419" width="80" height="30" as="geometry" />
        </mxCell>
        <mxCell id="wW9nk24ufCQ6Eqpu4SKE-5" value="p2p转账(transfer)" style="rounded=1;whiteSpace=wrap;html=1;fillColor=#60a917;strokeColor=#2D7600;fontColor=#ffffff;" parent="1" vertex="1">
          <mxGeometry x="-260" y="384" width="80" height="30" as="geometry" />
        </mxCell>
        <mxCell id="wW9nk24ufCQ6Eqpu4SKE-7" value="walletpayment" style="text;html=1;strokeColor=none;fillColor=none;align=center;verticalAlign=middle;whiteSpace=wrap;rounded=0;" parent="1" vertex="1">
          <mxGeometry x="-123" y="320" width="60" height="20" as="geometry" />
        </mxCell>
        <mxCell id="qn0rlDkQ1B8nhi_zscxB-5" value="AirPay App" style="rounded=0;whiteSpace=wrap;html=1;fillColor=#fff2cc;strokeColor=#d6b656;" parent="1" vertex="1">
          <mxGeometry x="-527" y="140" width="140" height="60" as="geometry" />
        </mxCell>
        <mxCell id="HvTuLi2SZUOxGm0iaF9G-14" value="充值(topUp)" style="rounded=1;whiteSpace=wrap;html=1;fillColor=#60a917;strokeColor=#2D7600;fontColor=#ffffff;" parent="1" vertex="1">
          <mxGeometry x="-260" y="348" width="80" height="30" as="geometry" />
        </mxCell>
        <mxCell id="HvTuLi2SZUOxGm0iaF9G-21" value="&lt;div style=&quot;text-align: justify&quot;&gt;&lt;ul&gt;&lt;li&gt;walletpayment:钱包交易处理服务&lt;/li&gt;&lt;li&gt;wallet_gateway:钱包网关，直接对APP提供用户余额和流水历史查询&lt;/li&gt;&lt;li&gt;admin_server:管理后台&lt;/li&gt;&lt;/ul&gt;&lt;/div&gt;&lt;div style=&quot;text-align: justify&quot;&gt;&lt;span style=&quot;font-weight: normal&quot;&gt;&lt;font style=&quot;font-size: 12px&quot;&gt;&lt;br&gt;&lt;/font&gt;&lt;/span&gt;&lt;/div&gt;" style="text;html=1;strokeColor=none;fillColor=none;spacing=5;spacingTop=-20;whiteSpace=wrap;overflow=hidden;rounded=0;" parent="1" vertex="1">
          <mxGeometry x="-490" y="830" width="500" height="150" as="geometry" />
        </mxCell>
        <mxCell id="NhHqqg0fZjunkmNu0OAJ-4" value="支付(payment)" style="rounded=1;whiteSpace=wrap;html=1;fillColor=#60a917;strokeColor=#2D7600;fontColor=#ffffff;" parent="1" vertex="1">
          <mxGeometry x="-173" y="348" width="80" height="30" as="geometry" />
        </mxCell>
        <mxCell id="NhHqqg0fZjunkmNu0OAJ-5" value="退款(refund)" style="rounded=1;whiteSpace=wrap;html=1;fillColor=#60a917;strokeColor=#2D7600;fontColor=#ffffff;" parent="1" vertex="1">
          <mxGeometry x="-173" y="384" width="80" height="30" as="geometry" />
        </mxCell>
        <mxCell id="NhHqqg0fZjunkmNu0OAJ-6" value="cashback(返现)" style="rounded=1;whiteSpace=wrap;html=1;fillColor=#60a917;strokeColor=#2D7600;fontColor=#ffffff;" parent="1" vertex="1">
          <mxGeometry x="-170" y="420" width="80" height="30" as="geometry" />
        </mxCell>
        <mxCell id="NhHqqg0fZjunkmNu0OAJ-7" value="refund-ext" style="rounded=1;whiteSpace=wrap;html=1;fillColor=#60a917;strokeColor=#2D7600;fontColor=#ffffff;" parent="1" vertex="1">
          <mxGeometry x="-81" y="348" width="80" height="30" as="geometry" />
        </mxCell>
        <mxCell id="NhHqqg0fZjunkmNu0OAJ-8" value="adjustment-add" style="rounded=1;whiteSpace=wrap;html=1;fillColor=#60a917;strokeColor=#2D7600;fontColor=#ffffff;" parent="1" vertex="1">
          <mxGeometry x="-81" y="384" width="80" height="30" as="geometry" />
        </mxCell>
        <mxCell id="NhHqqg0fZjunkmNu0OAJ-9" value="adjustment-deduct" style="rounded=1;whiteSpace=wrap;html=1;fillColor=#60a917;strokeColor=#2D7600;fontColor=#ffffff;" parent="1" vertex="1">
          <mxGeometry x="-81" y="420" width="80" height="30" as="geometry" />
        </mxCell>
        <mxCell id="NhHqqg0fZjunkmNu0OAJ-10" value="系统钱包充值（finance-funding）" style="rounded=1;whiteSpace=wrap;html=1;fillColor=#60a917;strokeColor=#2D7600;fontColor=#ffffff;" parent="1" vertex="1">
          <mxGeometry x="10" y="360" width="80" height="72" as="geometry" />
        </mxCell>
        <mxCell id="NhHqqg0fZjunkmNu0OAJ-11" value="" style="rounded=0;whiteSpace=wrap;html=1;" parent="1" vertex="1">
          <mxGeometry x="-540" y="414" width="178" height="150" as="geometry" />
        </mxCell>
        <mxCell id="NhHqqg0fZjunkmNu0OAJ-13" value="查询流水()" style="rounded=1;whiteSpace=wrap;html=1;fillColor=#60a917;strokeColor=#2D7600;fontColor=#ffffff;" parent="1" vertex="1">
          <mxGeometry x="-522" y="513" width="130" height="30" as="geometry" />
        </mxCell>
        <mxCell id="NhHqqg0fZjunkmNu0OAJ-14" value="wallet_gateway" style="text;html=1;strokeColor=none;fillColor=none;align=center;verticalAlign=middle;whiteSpace=wrap;rounded=0;" parent="1" vertex="1">
          <mxGeometry x="-502" y="425" width="130" height="20" as="geometry" />
        </mxCell>
        <mxCell id="NhHqqg0fZjunkmNu0OAJ-15" value="查询余额(/wallet/get)" style="rounded=1;whiteSpace=wrap;html=1;fillColor=#60a917;strokeColor=#2D7600;fontColor=#ffffff;" parent="1" vertex="1">
          <mxGeometry x="-522" y="463" width="130" height="30" as="geometry" />
        </mxCell>
        <mxCell id="NhHqqg0fZjunkmNu0OAJ-23" value="AirPay Payment&lt;br&gt;(支付模块)" style="rounded=0;whiteSpace=wrap;html=1;fillColor=#fff2cc;strokeColor=#d6b656;" parent="1" vertex="1">
          <mxGeometry x="-180" y="130" width="140" height="60" as="geometry" />
        </mxCell>
        <mxCell id="NhHqqg0fZjunkmNu0OAJ-24" value="IS&lt;br&gt;(支付网关)" style="rounded=0;whiteSpace=wrap;html=1;fillColor=#fff2cc;strokeColor=#d6b656;" parent="1" vertex="1">
          <mxGeometry x="140" y="130" width="140" height="60" as="geometry" />
        </mxCell>
        <mxCell id="D_jg47KwJ7MUG4NsFkgv-1" value="wallet engine" style="rounded=0;whiteSpace=wrap;html=1;fillColor=#fff2cc;strokeColor=#d6b656;" vertex="1" parent="1">
          <mxGeometry x="150" y="344" width="140" height="60" as="geometry" />
        </mxCell>
        <mxCell id="D_jg47KwJ7MUG4NsFkgv-2" value="钱包引擎数据" style="shape=cylinder;whiteSpace=wrap;html=1;boundedLbl=1;backgroundOutline=1;fillColor=#dae8fc;strokeColor=#6c8ebf;" vertex="1" parent="1">
          <mxGeometry x="186" y="480" width="90" height="60" as="geometry" />
        </mxCell>
        <mxCell id="D_jg47KwJ7MUG4NsFkgv-4" value="钱包交易数据" style="shape=cylinder;whiteSpace=wrap;html=1;boundedLbl=1;backgroundOutline=1;fillColor=#dae8fc;strokeColor=#6c8ebf;" vertex="1" parent="1">
          <mxGeometry x="-127.5" y="480" width="85" height="60" as="geometry" />
        </mxCell>
        <mxCell id="D_jg47KwJ7MUG4NsFkgv-5" value="" style="endArrow=classic;html=1;exitX=0.457;exitY=1;exitDx=0;exitDy=0;exitPerimeter=0;entryX=0.433;entryY=-0.007;entryDx=0;entryDy=0;entryPerimeter=0;fillColor=#dae8fc;strokeColor=#6c8ebf;" edge="1" parent="1" source="qn0rlDkQ1B8nhi_zscxB-5" target="NhHqqg0fZjunkmNu0OAJ-11">
          <mxGeometry width="50" height="50" relative="1" as="geometry">
            <mxPoint x="-190" y="370" as="sourcePoint" />
            <mxPoint x="-140" y="320" as="targetPoint" />
          </mxGeometry>
        </mxCell>
        <mxCell id="D_jg47KwJ7MUG4NsFkgv-6" value="" style="endArrow=classic;html=1;exitX=1;exitY=0.5;exitDx=0;exitDy=0;entryX=0.007;entryY=0.633;entryDx=0;entryDy=0;entryPerimeter=0;fillColor=#dae8fc;strokeColor=#6c8ebf;" edge="1" parent="1" source="qn0rlDkQ1B8nhi_zscxB-5" target="NhHqqg0fZjunkmNu0OAJ-23">
          <mxGeometry width="50" height="50" relative="1" as="geometry">
            <mxPoint x="-190" y="370" as="sourcePoint" />
            <mxPoint x="-140" y="320" as="targetPoint" />
          </mxGeometry>
        </mxCell>
        <mxCell id="D_jg47KwJ7MUG4NsFkgv-7" value="" style="endArrow=classic;html=1;exitX=1;exitY=0.5;exitDx=0;exitDy=0;entryX=0;entryY=0.5;entryDx=0;entryDy=0;fillColor=#dae8fc;strokeColor=#6c8ebf;" edge="1" parent="1" source="NhHqqg0fZjunkmNu0OAJ-23" target="NhHqqg0fZjunkmNu0OAJ-24">
          <mxGeometry width="50" height="50" relative="1" as="geometry">
            <mxPoint x="-190" y="370" as="sourcePoint" />
            <mxPoint x="-140" y="320" as="targetPoint" />
          </mxGeometry>
        </mxCell>
        <mxCell id="D_jg47KwJ7MUG4NsFkgv-8" value="" style="endArrow=classic;html=1;entryX=0.438;entryY=0.007;entryDx=0;entryDy=0;entryPerimeter=0;fillColor=#dae8fc;strokeColor=#6c8ebf;" edge="1" parent="1" source="NhHqqg0fZjunkmNu0OAJ-23" target="wW9nk24ufCQ6Eqpu4SKE-6">
          <mxGeometry width="50" height="50" relative="1" as="geometry">
            <mxPoint x="-190" y="370" as="sourcePoint" />
            <mxPoint x="-140" y="320" as="targetPoint" />
          </mxGeometry>
        </mxCell>
        <mxCell id="D_jg47KwJ7MUG4NsFkgv-9" value="" style="endArrow=classic;html=1;entryX=0;entryY=0.5;entryDx=0;entryDy=0;fillColor=#dae8fc;strokeColor=#6c8ebf;" edge="1" parent="1" target="D_jg47KwJ7MUG4NsFkgv-1">
          <mxGeometry width="50" height="50" relative="1" as="geometry">
            <mxPoint x="100" y="374" as="sourcePoint" />
            <mxPoint x="-140" y="320" as="targetPoint" />
          </mxGeometry>
        </mxCell>
        <mxCell id="D_jg47KwJ7MUG4NsFkgv-10" value="" style="endArrow=classic;html=1;exitX=0.5;exitY=1;exitDx=0;exitDy=0;entryX=0.356;entryY=0.017;entryDx=0;entryDy=0;entryPerimeter=0;fillColor=#dae8fc;strokeColor=#6c8ebf;" edge="1" parent="1" source="D_jg47KwJ7MUG4NsFkgv-1" target="D_jg47KwJ7MUG4NsFkgv-2">
          <mxGeometry width="50" height="50" relative="1" as="geometry">
            <mxPoint x="230" y="450" as="sourcePoint" />
            <mxPoint x="230" y="530" as="targetPoint" />
          </mxGeometry>
        </mxCell>
        <mxCell id="D_jg47KwJ7MUG4NsFkgv-16" value="" style="endArrow=classic;html=1;entryX=0;entryY=0.5;entryDx=0;entryDy=0;fillColor=#dae8fc;strokeColor=#6c8ebf;" edge="1" parent="1" target="D_jg47KwJ7MUG4NsFkgv-4">
          <mxGeometry width="50" height="50" relative="1" as="geometry">
            <mxPoint x="-360" y="510" as="sourcePoint" />
            <mxPoint x="-140" y="320" as="targetPoint" />
          </mxGeometry>
        </mxCell>
        <mxCell id="D_jg47KwJ7MUG4NsFkgv-17" value="" style="endArrow=classic;html=1;entryX=0.5;entryY=0;entryDx=0;entryDy=0;fillColor=#dae8fc;strokeColor=#6c8ebf;" edge="1" parent="1" target="D_jg47KwJ7MUG4NsFkgv-4">
          <mxGeometry width="50" height="50" relative="1" as="geometry">
            <mxPoint x="-85" y="460" as="sourcePoint" />
            <mxPoint x="-140" y="320" as="targetPoint" />
          </mxGeometry>
        </mxCell>
        <mxCell id="D_jg47KwJ7MUG4NsFkgv-18" value="" style="rounded=0;whiteSpace=wrap;html=1;" vertex="1" parent="1">
          <mxGeometry x="-280" y="590" width="370" height="150" as="geometry" />
        </mxCell>
        <mxCell id="D_jg47KwJ7MUG4NsFkgv-19" value="proxy" style="rounded=1;whiteSpace=wrap;html=1;fillColor=#60a917;strokeColor=#2D7600;fontColor=#ffffff;" vertex="1" parent="1">
          <mxGeometry x="-270" y="699" width="80" height="30" as="geometry" />
        </mxCell>
        <mxCell id="D_jg47KwJ7MUG4NsFkgv-20" value="p2p转账(transfer)" style="rounded=1;whiteSpace=wrap;html=1;fillColor=#60a917;strokeColor=#2D7600;fontColor=#ffffff;" vertex="1" parent="1">
          <mxGeometry x="-270" y="664" width="80" height="30" as="geometry" />
        </mxCell>
        <mxCell id="D_jg47KwJ7MUG4NsFkgv-21" value="admin_server" style="text;html=1;strokeColor=none;fillColor=none;align=center;verticalAlign=middle;whiteSpace=wrap;rounded=0;" vertex="1" parent="1">
          <mxGeometry x="-133" y="600" width="60" height="20" as="geometry" />
        </mxCell>
        <mxCell id="D_jg47KwJ7MUG4NsFkgv-22" value="充值(topUp)" style="rounded=1;whiteSpace=wrap;html=1;fillColor=#60a917;strokeColor=#2D7600;fontColor=#ffffff;" vertex="1" parent="1">
          <mxGeometry x="-270" y="628" width="80" height="30" as="geometry" />
        </mxCell>
        <mxCell id="D_jg47KwJ7MUG4NsFkgv-23" value="支付(payment)" style="rounded=1;whiteSpace=wrap;html=1;fillColor=#60a917;strokeColor=#2D7600;fontColor=#ffffff;" vertex="1" parent="1">
          <mxGeometry x="-183" y="628" width="80" height="30" as="geometry" />
        </mxCell>
        <mxCell id="D_jg47KwJ7MUG4NsFkgv-24" value="退款(refund)" style="rounded=1;whiteSpace=wrap;html=1;fillColor=#60a917;strokeColor=#2D7600;fontColor=#ffffff;" vertex="1" parent="1">
          <mxGeometry x="-183" y="664" width="80" height="30" as="geometry" />
        </mxCell>
        <mxCell id="D_jg47KwJ7MUG4NsFkgv-25" value="cashback(返现)" style="rounded=1;whiteSpace=wrap;html=1;fillColor=#60a917;strokeColor=#2D7600;fontColor=#ffffff;" vertex="1" parent="1">
          <mxGeometry x="-180" y="700" width="80" height="30" as="geometry" />
        </mxCell>
        <mxCell id="D_jg47KwJ7MUG4NsFkgv-26" value="refund-ext" style="rounded=1;whiteSpace=wrap;html=1;fillColor=#60a917;strokeColor=#2D7600;fontColor=#ffffff;" vertex="1" parent="1">
          <mxGeometry x="-91" y="628" width="80" height="30" as="geometry" />
        </mxCell>
        <mxCell id="D_jg47KwJ7MUG4NsFkgv-27" value="adjustment-add" style="rounded=1;whiteSpace=wrap;html=1;fillColor=#60a917;strokeColor=#2D7600;fontColor=#ffffff;" vertex="1" parent="1">
          <mxGeometry x="-91" y="664" width="80" height="30" as="geometry" />
        </mxCell>
        <mxCell id="D_jg47KwJ7MUG4NsFkgv-28" value="adjustment-deduct" style="rounded=1;whiteSpace=wrap;html=1;fillColor=#60a917;strokeColor=#2D7600;fontColor=#ffffff;" vertex="1" parent="1">
          <mxGeometry x="-91" y="700" width="80" height="30" as="geometry" />
        </mxCell>
        <mxCell id="D_jg47KwJ7MUG4NsFkgv-29" value="系统钱包充值（finance-funding）" style="rounded=1;whiteSpace=wrap;html=1;fillColor=#60a917;strokeColor=#2D7600;fontColor=#ffffff;" vertex="1" parent="1">
          <mxGeometry y="640" width="80" height="72" as="geometry" />
        </mxCell>
      </root>
    </mxGraphModel>
  </diagram>
</mxfile>
